<?xml version="1.0" standalone="no"?>
<!DOCTYPE svg PUBLIC "-//W3C//DTD SVG 20010904//EN"
 "http://www.w3.org/TR/2001/REC-SVG-20010904/DTD/svg10.dtd">
<svg version="1.0" xmlns="http://www.w3.org/2000/svg"
 width="1408.000000pt" height="1408.000000pt" viewBox="0 0 1408.000000 1408.000000"
 preserveAspectRatio="xMidYMid meet">
<metadata>
Created by potrace 1.14, written by Peter Selinger 2001-2017
</metadata>
<g transform="translate(0.000000,1408.000000) scale(0.100000,-0.100000)"
fill="#000000" stroke="none">
<path d="M5348 9959 c-132 -47 -263 -88 -298 -94 -14 -3 -34 -7 -45 -10 -11
-2 -60 -14 -110 -25 -49 -12 -97 -23 -105 -25 -55 -13 -158 -37 -173 -41 -10
-2 -27 -6 -37 -9 -10 -3 -27 -8 -37 -10 -10 -2 -79 -20 -153 -40 -175 -47
-241 -76 -395 -174 -151 -96 -256 -182 -405 -331 -147 -147 -161 -162 -268
-295 -88 -109 -75 -91 -147 -200 -64 -96 -91 -147 -126 -235 -31 -80 -91 -268
-91 -290 0 -3 -7 -25 -15 -50 -8 -25 -16 -55 -18 -67 -3 -13 -7 -33 -9 -45 -3
-13 -7 -32 -10 -43 -8 -35 -64 -309 -70 -345 -3 -19 -10 -55 -15 -80 -5 -25
-12 -63 -15 -85 -4 -22 -15 -56 -26 -75 -80 -144 -87 -168 -77 -267 15 -142
145 -179 318 -92 29 14 151 100 195 138 18 15 203 110 268 138 104 43 110 46
130 50 11 2 24 7 30 12 9 7 69 29 101 37 15 4 356 121 390 134 17 6 30 10 30
8 1 -2 13 5 28 15 15 9 27 16 27 13 0 -2 58 27 128 63 362 189 707 475 928
768 73 97 138 208 179 307 32 79 77 221 89 281 4 17 9 41 12 55 8 38 23 139
30 195 3 28 7 61 10 75 2 14 7 55 10 92 5 63 11 103 14 103 1 0 3 18 4 40 2
22 16 72 31 110 15 39 28 75 29 80 1 6 4 15 7 20 3 6 7 41 8 78 3 68 3 69 -37
106 -43 42 -40 40 -134 46 -58 3 -82 -2 -180 -36z"/>
<path d="M1915 8190 c-192 -65 -470 -169 -560 -209 -33 -15 -63 -28 -67 -30
-23 -7 -85 -33 -98 -41 -8 -6 -22 -13 -30 -16 -8 -3 -38 -17 -67 -31 -29 -14
-55 -24 -59 -23 -4 1 -10 -2 -13 -7 -3 -5 -35 -24 -71 -42 -110 -56 -241 -140
-350 -226 -14 -11 -68 -63 -121 -116 -149 -149 -260 -318 -332 -505 -40 -103
-45 -119 -81 -279 -23 -101 -29 -139 -42 -247 -2 -21 -7 -57 -10 -80 -11 -75
-14 -1069 -3 -1133 5 -33 11 -71 13 -85 24 -154 101 -343 202 -496 59 -90 253
-294 279 -294 7 0 15 -4 17 -8 4 -12 95 -72 107 -72 6 0 11 -4 11 -10 0 -5 4
-10 9 -10 5 0 44 -16 86 -36 43 -20 82 -37 89 -38 6 -1 17 -5 24 -9 6 -5 12
-6 12 -2 0 3 9 1 21 -5 11 -6 28 -13 37 -15 9 -2 53 -11 97 -20 119 -26 381
-28 510 -5 131 24 132 24 215 54 311 112 539 319 689 626 26 52 52 113 59 135
48 173 57 217 69 325 11 105 5 345 -11 435 -12 64 -31 149 -40 180 -2 6 -7 25
-11 43 -4 18 -12 35 -16 38 -5 3 -9 13 -9 23 0 36 -118 251 -183 333 -79 101
-129 148 -233 223 -163 118 -373 193 -589 211 -131 10 -270 3 -370 -20 -168
-40 -290 -96 -429 -200 -118 -89 -160 -133 -293 -312 -21 -29 -22 -29 -18 -4
2 14 6 61 10 105 3 44 8 91 10 105 2 14 6 47 10 75 4 27 11 60 16 72 5 13 7
23 5 23 -2 0 2 24 10 53 8 28 17 61 19 73 14 65 116 284 151 325 8 8 14 21 14
27 0 7 4 12 9 12 4 0 20 17 34 38 71 106 249 254 425 355 119 68 493 236 552
249 8 2 17 5 20 8 3 3 32 14 65 25 33 10 67 23 75 27 8 5 105 39 216 76 l201
67 -56 171 -56 172 -170 -58z m-430 -1814 c17 -3 41 -8 54 -11 102 -20 256
-93 317 -150 80 -74 114 -108 114 -113 0 -4 11 -20 25 -36 65 -76 131 -225
167 -379 23 -100 34 -379 18 -454 -5 -21 -11 -53 -14 -72 -7 -52 -58 -204 -73
-222 -7 -8 -13 -20 -13 -25 0 -17 -128 -213 -140 -214 -3 0 -33 -26 -67 -58
-95 -89 -263 -176 -382 -197 -19 -3 -39 -9 -44 -12 -6 -3 -71 -7 -146 -9 -225
-5 -377 40 -547 161 -66 48 -67 48 -129 116 -68 74 -175 252 -175 291 0 8 -4
18 -9 23 -7 9 -23 60 -37 125 -54 238 -28 543 62 738 13 28 24 54 24 57 0 3
16 28 35 55 19 27 35 52 35 56 0 3 31 36 68 74 67 67 171 141 242 173 49 22
180 67 180 62 0 -2 15 1 33 6 17 5 54 12 81 14 28 3 51 7 53 8 5 5 237 -1 268
-7z"/>
<path d="M4145 6843 c-126 -8 -264 -35 -365 -70 -62 -22 -214 -95 -218 -105
-2 -4 -8 -8 -13 -8 -8 0 -89 -54 -133 -90 -10 -8 -48 -44 -84 -80 -189 -188
-327 -458 -368 -720 -3 -19 -7 -42 -9 -50 -16 -57 -22 -301 -11 -420 9 -95 13
-117 42 -250 12 -57 58 -179 96 -259 140 -288 389 -522 668 -628 68 -25 194
-61 245 -69 78 -13 375 -12 428 0 32 7 57 12 57 11 0 -2 37 10 83 26 45 16 87
31 92 33 25 7 74 33 112 58 23 15 45 28 48 28 4 0 20 10 35 23 15 12 42 32 58
45 42 32 139 128 183 181 l36 44 -1 -183 c-1 -144 2 -184 12 -188 18 -6 362
-9 363 -2 4 17 3 2580 -1 2581 -3 1 -87 2 -187 3 -178 2 -183 2 -184 -18 -1
-12 -1 -96 -1 -188 0 -93 -3 -168 -7 -168 -4 0 -14 13 -23 28 -22 37 -173 188
-210 210 -15 9 -28 20 -28 24 0 4 -6 8 -14 8 -7 0 -19 6 -25 14 -11 13 -158
89 -223 115 -26 10 -129 38 -173 47 -55 11 -213 21 -280 17z m225 -357 c14 -3
35 -8 48 -11 33 -6 92 -24 127 -40 101 -44 128 -59 186 -102 213 -160 339
-388 385 -693 9 -55 12 -310 4 -310 -3 0 -5 -17 -6 -38 0 -20 -4 -52 -7 -69
-4 -18 -10 -48 -13 -65 -8 -46 -42 -142 -76 -216 -123 -272 -376 -468 -658
-510 -107 -16 -276 -8 -378 18 -171 42 -375 187 -470 334 -15 23 -30 43 -33
46 -23 18 -101 204 -123 292 -14 58 -19 82 -33 163 -7 41 -7 300 0 350 53 375
245 655 541 790 57 26 116 46 138 47 2 0 28 5 58 12 55 12 261 14 310 2z"/>
<path d="M9887 6843 c-1 -1 -40 -4 -87 -8 -47 -4 -88 -8 -91 -10 -3 -2 -21 -7
-40 -10 -71 -12 -207 -58 -282 -95 -293 -146 -505 -387 -626 -710 -26 -69 -60
-201 -68 -260 -8 -65 -8 -64 -14 -75 -8 -13 -4 -401 4 -435 3 -14 8 -43 10
-65 11 -91 58 -243 114 -365 29 -65 116 -216 132 -230 3 -3 22 -25 42 -50 67
-83 225 -230 247 -230 5 0 17 -8 28 -18 55 -51 326 -165 423 -178 20 -2 61 -9
91 -14 30 -5 127 -7 215 -6 176 4 264 21 398 78 69 29 198 104 246 143 42 34
176 169 204 205 l27 35 1 -105 c1 -58 0 -109 -1 -115 -1 -5 -1 -17 -1 -25 1
-8 1 -41 0 -72 0 -41 4 -58 13 -59 97 -6 351 -2 358 6 4 6 7 588 6 1295 l-1
1285 -185 0 -185 0 -2 -60 c-1 -33 -2 -64 -3 -70 -1 -5 -1 -14 0 -20 2 -10 2
-107 0 -185 l-1 -45 -22 30 c-46 62 -195 203 -263 248 -131 86 -305 158 -417
172 -23 3 -62 8 -87 11 -41 6 -179 11 -183 7z m223 -358 c14 -3 36 -8 50 -11
82 -16 206 -70 290 -127 44 -30 170 -151 200 -193 46 -63 60 -86 93 -154 39
-81 85 -212 92 -263 2 -18 4 -32 5 -32 7 0 24 -185 23 -255 0 -40 -9 -154 -18
-220 -9 -73 -60 -226 -106 -320 -54 -110 -164 -242 -274 -328 -51 -39 -206
-111 -290 -134 -117 -31 -348 -31 -455 1 -277 82 -479 272 -591 558 -18 44
-49 155 -55 193 -3 19 -9 51 -13 71 -16 72 -10 330 10 430 11 52 21 99 22 104
2 6 9 30 16 54 7 24 16 51 21 60 4 9 25 50 45 91 50 102 86 152 170 236 133
134 270 206 455 239 65 11 262 12 310 0z"/>
<path d="M5943 6753 c-6 -2 -9 -299 -4 -334 1 -3 219 -6 486 -5 317 1 485 -2
486 -9 1 -5 3 -365 4 -800 1 -434 6 -810 10 -835 35 -229 140 -403 313 -521
73 -49 213 -106 282 -114 19 -3 46 -7 60 -11 33 -8 500 -13 501 -5 4 29 3 331
-1 332 -3 1 -95 3 -205 4 -110 2 -224 8 -253 14 -118 24 -235 109 -281 205
-51 104 -50 97 -51 944 l0 792 528 0 528 0 -1 172 0 172 -1197 1 c-659 0
-1201 -1 -1205 -2z"/>
<path d="M11676 6740 c-2 -8 -4 -85 -3 -170 l2 -155 483 -1 c265 -1 485 -3
487 -6 3 -2 5 -359 5 -794 1 -434 5 -809 10 -834 4 -25 10 -58 13 -75 3 -16
15 -59 27 -95 68 -203 227 -364 432 -439 128 -47 192 -55 463 -55 l220 -1 0
170 0 170 -205 1 c-225 1 -296 13 -380 61 -52 29 -130 101 -130 119 0 7 -4 14
-10 16 -5 2 -21 35 -36 73 l-26 70 -2 795 c-1 437 0 801 2 808 3 9 118 12 528
12 l524 0 -2 172 -3 172 -1198 0 c-1056 1 -1198 -1 -1201 -14z"/>
</g>
</svg>
