<svg width="352" height="148" fill="none" xmlns="http://www.w3.org/2000/svg">
  <path
    d="M142.354 1.967s.82 2.515-1.04 6.504c-1.915 3.99-.437 16.888-7.003 27.818-6.565 10.931-21.336 22.299-33.974 26.288-12.638 3.99-18.765 6.941-22.157 9.893-3.392 2.951-9.684 4.81-10.56 0-.82-4.864 1.533-5.302 2.353-8.308.82-3.224 3.392-22.626 8.7-30.824 5.306-8.198 17.78-22.462 29.761-25.632 12.528-3.334 18.328-4.208 22.376-5.63 3.994-1.584 8.644-3.661 11.544-.109z"
    fill="#B24D97"/>
  <path
    d="M49.567 85.914c4.65 2.788 8.26 6.723 10.777 11.75 2.517 5.029 3.775 10.767 3.775 17.216 0 6.34-1.367 12.079-4.103 17.107-2.735 5.082-6.51 9.017-11.325 11.805C43.877 146.579 38.351 148 32.17 148c-6.073 0-11.544-1.366-16.303-4.099-4.815-2.733-8.59-6.504-11.38-11.313-2.79-4.81-4.322-10.33-4.486-16.505v-15.467c0-11.423 1.641-20.495 4.979-27.217 3.337-6.722 8.589-12.242 15.756-16.505 7.167-4.263 17.671-8.636 31.403-13.063l2.79 8.581c-11.872 3.771-20.953 7.324-27.19 10.657-6.237 3.334-10.833 7.488-13.842 12.57-3.009 5.083-4.705 11.86-5.033 20.331 2.68-4.427 6.127-7.87 10.45-10.438 4.267-2.514 8.972-3.826 14.06-3.826 6.127 0 11.543 1.421 16.194 4.208zm-5.8 50.39c3.447-2.131 6.128-5.028 8.097-8.744 1.915-3.717 2.9-7.925 2.9-12.625 0-7.269-1.915-13.171-5.744-17.762-3.83-4.536-9.082-6.832-15.702-6.832-7.386 0-13.185 2.186-17.507 6.504-4.267 4.317-6.456 10.329-6.456 17.981 0 4.809.985 9.072 2.9 12.788 1.915 3.717 4.595 6.668 8.042 8.745 3.392 2.131 7.276 3.17 11.599 3.17 4.486-.055 8.425-1.148 11.871-3.225zM137.594 81.16v64.654h-9.41v-9.51c-2.681 3.662-5.963 6.559-9.793 8.635-3.83 2.077-8.097 3.116-12.747 3.116-6.182 0-11.708-1.476-16.577-4.427-4.87-2.952-8.699-7.051-11.49-12.297-2.79-5.247-4.157-11.259-4.157-17.981 0-6.613 1.368-12.57 4.103-17.762 2.736-5.192 6.51-9.291 11.325-12.242 4.814-2.952 10.34-4.427 16.522-4.427 4.705 0 9.027 1.038 12.912 3.115 3.939 2.077 7.221 4.973 9.902 8.744v-9.673h9.41v.054zm-20.407 54.98c3.447-2.186 6.128-5.301 8.097-9.236 1.915-3.935 2.9-8.417 2.9-13.39 0-4.973-.985-9.455-2.9-13.39-1.914-3.935-4.65-7.05-8.097-9.236-3.446-2.186-7.385-3.334-11.817-3.334-4.322 0-8.206 1.093-11.598 3.334-3.392 2.186-6.073 5.246-8.042 9.181-1.915 3.935-2.9 8.362-2.9 13.336 0 5.082.985 9.564 2.9 13.554 1.914 3.935 4.595 7.05 8.042 9.236 3.392 2.186 7.276 3.334 11.598 3.334 4.432-.055 8.371-1.203 11.817-3.389zM148.372 81.16h60.289v8.58h-26.424v37.82c0 3.388 1.039 6.121 3.118 8.088 2.079 1.968 4.869 2.952 8.371 2.952h8.316v8.58h-8.316c-6.456 0-11.544-1.803-15.264-5.411-3.72-3.607-5.58-8.58-5.58-14.92V89.685h-24.456V81.16h-.054zM280.933 81.16v64.654h-9.41v-9.51c-2.681 3.662-5.964 6.559-9.793 8.635-3.83 2.077-8.097 3.116-12.748 3.116-6.182 0-11.708-1.476-16.577-4.427-4.869-2.952-8.698-7.051-11.489-12.297-2.79-5.247-4.158-11.259-4.158-17.981 0-6.613 1.368-12.57 4.104-17.762 2.735-5.192 6.51-9.291 11.324-12.242 4.815-2.952 10.341-4.427 16.523-4.427 4.705 0 9.027 1.038 12.911 3.115 3.939 2.077 7.222 4.973 9.903 8.744v-9.673h9.41v.054zm-20.352 54.98c3.446-2.186 6.127-5.301 8.097-9.236 1.914-3.935 2.899-8.417 2.899-13.39 0-4.973-.985-9.455-2.899-13.39-1.915-3.935-4.651-7.05-8.097-9.236-3.447-2.186-7.386-3.334-11.818-3.334-4.322 0-8.206 1.093-11.598 3.334-3.392 2.186-6.073 5.246-8.042 9.181-1.915 3.935-2.9 8.362-2.9 13.336 0 5.082.985 9.564 2.9 13.554 1.915 3.935 4.595 7.05 8.042 9.236 3.392 2.186 7.276 3.334 11.598 3.334 4.377-.055 8.316-1.203 11.818-3.389zM291.765 81.16h60.29v8.58H325.63v37.82c0 3.388 1.04 6.121 3.119 8.088 2.079 1.968 4.869 2.952 8.37 2.952h8.316v8.58h-8.316c-6.456 0-11.544-1.803-15.264-5.411-3.72-3.607-5.58-8.58-5.58-14.92V89.685H291.82V81.16h-.055z"
    fill="#319B66"/>
</svg>
